<?xml version="1.0" encoding="UTF-8" standalone="no"?>
<!-- Svg Vector Icons : http://www.onlinewebfonts.com/icon -->

<svg
   version="1.1"
   x="0px"
   y="0px"
   viewBox="0 0 30.236219 30.236219"
   enable-background="new 0 0 1000 1000"
   xml:space="preserve"
   id="svg18"
   sodipodi:docname="MTD.svg"
   width="8mm"
   height="8mm"
   inkscape:version="1.1.2 (b8e25be833, 2022-02-05)"
   inkscape:export-filename="C:\Users\volod\Desktop\9d9541b2f621c4f476f867012616e695.png"
   inkscape:export-xdpi="65.518242"
   inkscape:export-ydpi="65.518242"
   xmlns:inkscape="http://www.inkscape.org/namespaces/inkscape"
   xmlns:sodipodi="http://sodipodi.sourceforge.net/DTD/sodipodi-0.dtd"
   xmlns="http://www.w3.org/2000/svg"
   xmlns:svg="http://www.w3.org/2000/svg"><defs
   id="defs22" /><sodipodi:namedview
   id="namedview20"
   pagecolor="#ffffff"
   bordercolor="#666666"
   borderopacity="1.0"
   inkscape:pageshadow="2"
   inkscape:pageopacity="0.0"
   inkscape:pagecheckerboard="0"
   showgrid="false"
   units="mm"
   inkscape:zoom="18.282953"
   inkscape:cx="19.444342"
   inkscape:cy="11.978371"
   inkscape:window-width="1902"
   inkscape:window-height="1030"
   inkscape:window-x="0"
   inkscape:window-y="0"
   inkscape:window-maximized="0"
   inkscape:current-layer="svg18"
   inkscape:document-units="mm" />
<metadata
   id="metadata2"> Svg Vector Icons : http://www.onlinewebfonts.com/icon </metadata>
<g
   id="g1284"
   transform="matrix(1.110548,0,0,1.1105479,0.07124899,0.06520379)"><g
     id="g16"
     transform="matrix(0.02470129,0,0,0.02726913,1.1550824,-0.50066407)"><path
       d="m 970.4,142 -32.1,-30 c -12.8,-12 -29.8,-17.8 -47.9,-16.5 -17.3,1.3 -33.5,9.2 -45.7,22.3 l -245.3,262.5 -0.4,-0.1 -62,203.4 192.3,-88.5 -0.8,-1.6 2.4,-2.8 0.9,0.9 239,-255.8 c 25.8,-27.5 25.5,-69.6 -0.4,-93.8 z m -148,65.8 61.7,54.8 -159.6,170.7 -62.6,-53.8 z m -187.1,208.3 55,47.3 -80.7,37.1 z M 937.9,205 l -23,24.6 -61.7,-54.8 24.4,-26.2 c 4.4,-4.8 10.2,-7.6 16.2,-8.1 3.1,-0.2 8.9,0 13.6,4.4 l 32.1,30 c 7.8,7.3 7.1,20.8 -1.6,30.1 z"
       id="path4" /><path
       d="m 877.9,391 v 0 l -6.9,7.5 v 0.4 l -20.6,23.7 c 8,3.8 8.4,9 8.4,19 V 889 c 0,12.2 -8.4,22.4 -19.3,24.2 H 527.1 504.3 202.3 C 191.4,911.4 183,901.2 183,889 V 441.5 C 183,428 193.2,417 205.8,417 h 313.5 l 38.4,-41.8 H 205.9 c -35.7,0 -64.7,29.8 -64.7,66.3 v 447.4 c 0,8.5 1.6,16.7 4.5,24.2 H 74.4 C 62,913.1 51.9,904.6 51.9,894.2 V 105.5 C 51.9,95.1 62,86.6 74.4,86.6 h 430 c 12.4,0 22.5,8.5 22.5,18.9 v 135.9 h 160.3 l 38.4,-41.8 H 568.7 V 105.5 C 568.7,72 539.8,44.7 504.3,44.7 H 74.3 C 38.9,44.8 10,72 10,105.5 V 894.2 C 10,927.7 38.9,955 74.4,955 H 200 c 2,0.2 4,0.3 6,0.3 h 630.2 c 2,0 4,-0.1 6,-0.3 h 6.5 c 35.5,0 64.4,-28.2 64.4,-62.8 V 352.8 Z"
       id="path6" /><path
       d="m 486.5,554.4 c 12.5,0 22.6,-10.1 22.6,-22.6 0,-12.5 -10.1,-22.6 -22.6,-22.6 h -226 c -12.5,0 -22.6,10.1 -22.6,22.6 0,12.5 10.1,22.6 22.6,22.6 z"
       id="path8" /><path
       d="m 263.6,643.3 h 226 c 12.5,0 22.6,-10.1 22.6,-22.6 0,-12.5 -10.1,-22.6 -22.6,-22.6 h -226 c -12.5,0 -22.6,10.1 -22.6,22.6 0,12.5 10.1,22.6 22.6,22.6 z"
       id="path10" /><path
       d="M 643.4,687.1 H 266.7 c -12.5,0 -22.6,10.1 -22.6,22.6 0,12.5 10.1,22.6 22.6,22.6 h 376.7 c 12.5,0 22.6,-10.1 22.6,-22.6 0,-12.5 -10.1,-22.6 -22.6,-22.6 z"
       id="path12" /><path
       d="m 244.2,798.6 c 0,12.5 10.1,22.6 22.6,22.6 h 514.8 c 12.5,0 22.6,-10.1 22.6,-22.6 0,-12.5 -10.1,-22.6 -22.6,-22.6 H 266.7 c -12.4,0 -22.5,10.1 -22.5,22.6 z"
       id="path14" /></g><rect
     style="fill:#147ae3;fill-opacity:0.75;stroke:#ffce01;stroke-width:1.39843;stroke-linejoin:round;stroke-miterlimit:4;stroke-dasharray:none;stroke-opacity:1"
     id="rect46"
     width="26.308661"
     height="26.308661"
     x="0.054695759"
     y="0.10939152" /></g>
</svg>
