<?xml version="1.0" encoding="UTF-8" standalone="no"?>
<!-- Created with Inkscape (http://www.inkscape.org/) -->

<svg
   version="1.1"
   id="svg9"
   width="4.5mm"
   height="4mm"
   viewBox="0 0 17.007874 15.11811"
   sodipodi:docname="Shkola_5.svg"
   inkscape:export-filename="1233.png"
   inkscape:export-xdpi="136.9861"
   inkscape:export-ydpi="136.9861"
   inkscape:version="1.1.2 (b8e25be833, 2022-02-05)"
   xmlns:inkscape="http://www.inkscape.org/namespaces/inkscape"
   xmlns:sodipodi="http://sodipodi.sourceforge.net/DTD/sodipodi-0.dtd"
   xmlns="http://www.w3.org/2000/svg"
   xmlns:svg="http://www.w3.org/2000/svg">
  <defs
     id="defs13" />
  <sodipodi:namedview
     id="namedview11"
     pagecolor="#ffffff"
     bordercolor="#666666"
     borderopacity="1.0"
     inkscape:pageshadow="2"
     inkscape:pageopacity="0.0"
     inkscape:pagecheckerboard="0"
     showgrid="false"
     width="5px"
     units="mm"
     inkscape:zoom="16.738544"
     inkscape:cx="12.516023"
     inkscape:cy="14.487521"
     inkscape:window-width="1920"
     inkscape:window-height="1001"
     inkscape:window-x="-9"
     inkscape:window-y="-9"
     inkscape:window-maximized="1"
     inkscape:current-layer="g15"
     inkscape:document-units="mm" />
  <g
     inkscape:groupmode="layer"
     inkscape:label="Image"
     id="g15">
    <g
       id="g4809">
      <g
         transform="matrix(6.9072009e-4,0,0,-4.3674241e-4,-1.61625,13.175464)"
         fill="#000000"
         stroke="none"
         id="g63"
         style="fill:#1423e3;fill-opacity:0.75">
        <path
           d="m 14235,25683 c -171,-7 -201,-12 -1115,-193 -162,-32 -459,-90 -660,-130 -201,-39 -491,-96 -645,-126 -154,-30 -316,-62 -360,-70 -44,-9 -190,-37 -325,-64 -135,-26 -297,-58 -360,-70 -63,-12 -180,-35 -260,-50 -80,-16 -230,-45 -335,-65 -104,-20 -305,-58 -445,-85 -140,-27 -340,-65 -445,-85 -104,-19 -221,-42 -260,-50 -38,-8 -122,-23 -185,-35 -63,-12 -243,-46 -400,-75 -317,-61 -781,-147 -1360,-255 -607,-112 -692,-129 -699,-136 -3,-3 21,-31 54,-62 98,-91 175,-120 650,-242 200,-52 327,-85 845,-219 151,-39 394,-102 540,-140 146,-38 407,-106 580,-151 173,-45 407,-106 520,-135 347,-89 1017,-264 1520,-395 129,-34 314,-82 410,-106 96,-25 231,-61 300,-79 69,-19 206,-55 305,-80 99,-25 292,-76 430,-112 1355,-356 1503,-386 1885,-387 324,0 553,43 1360,252 720,188 1437,373 1975,512 212,55 735,190 1030,266 138,36 329,85 425,110 407,105 574,148 720,186 85,22 256,66 380,98 124,31 342,88 485,125 143,37 352,91 465,120 113,29 338,88 500,130 162,42 392,101 510,132 118,30 217,57 219,59 12,11 -71,79 -134,110 -76,37 -86,39 -595,138 -184,36 -477,93 -650,126 -173,34 -346,67 -385,75 -108,21 -553,107 -925,179 -184,36 -499,97 -700,136 -201,39 -399,77 -440,85 -41,7 -203,39 -360,69 -157,30 -404,78 -550,106 -146,28 -310,60 -365,70 -55,11 -230,45 -390,75 -425,82 -864,167 -1165,225 -651,127 -942,176 -1140,195 -171,15 -347,22 -455,18 z"
           id="path41"
           style="fill:#1423e3;fill-opacity:0.75" />
        <path
           d="m 20670,23441 c -103,-32 -168,-122 -202,-286 -7,-34 -10,-385 -8,-1085 2,-1026 2,-1036 -19,-1097 -12,-34 -33,-84 -48,-110 -175,-314 -186,-339 -186,-433 0,-52 7,-84 35,-155 56,-141 72,-235 73,-420 0,-106 -6,-198 -18,-273 -18,-116 -92,-413 -173,-697 -81,-288 -132,-549 -136,-706 -3,-97 10,-126 70,-156 35,-17 71,-18 572,-16 294,0 553,5 576,10 l 41,8 -132,530 c -72,292 -166,670 -208,841 -114,458 -114,506 2,779 89,209 102,250 102,332 1,90 -10,114 -89,198 -142,148 -189,328 -178,673 17,560 18,1249 2,1582 -20,395 -28,483 -41,486 -5,1 -21,-1 -35,-5 z"
           id="path43"
           style="fill:#1423e3;fill-opacity:0.75" />
        <path
           d="m 10230,22767 c 0,-18 7,-103 15,-188 15,-156 39,-417 55,-608 6,-59 19,-200 29,-316 11,-115 27,-286 36,-380 18,-199 46,-364 75,-454 122,-370 407,-630 1065,-971 570,-297 1218,-509 1852,-609 601,-95 1120,-112 1687,-55 1038,104 1977,431 2813,980 357,235 512,426 594,734 26,95 56,319 63,475 4,66 13,255 21,420 8,165 22,426 31,580 9,154 14,298 12,321 l -3,41 -395,-92 c -992,-231 -2023,-505 -2905,-770 -315,-94 -484,-143 -545,-157 -83,-19 -411,-16 -530,6 -250,45 -420,88 -1105,281 -226,64 -1188,331 -1262,351 -28,7 -114,31 -190,53 -76,21 -230,65 -343,96 -113,31 -234,65 -270,76 -36,10 -173,48 -305,84 -132,37 -294,82 -359,101 -66,19 -123,34 -128,34 -4,0 -8,-15 -8,-33 z"
           id="path45"
           style="fill:#1423e3;fill-opacity:0.75" />
        <path
           d="m 18120,20029 c -771,-586 -1764,-984 -2825,-1133 -303,-42 -451,-51 -885,-50 -441,0 -545,7 -887,54 -955,133 -1828,465 -2586,984 -227,155 -232,158 -287,164 -82,8 -125,-38 -149,-158 -14,-71 -57,-427 -73,-600 -17,-191 -15,-563 5,-745 103,-961 542,-1855 1243,-2535 565,-548 1240,-895 1994,-1024 269,-47 426,-60 715,-60 450,0 808,53 1227,180 885,269 1607,799 2103,1544 184,277 313,526 419,808 81,214 97,266 146,457 98,383 130,643 131,1045 0,426 -43,736 -158,1133 -3,9 -10,17 -17,16 -6,0 -58,-36 -116,-80 z"
           id="path47"
           style="fill:#1423e3;fill-opacity:0.75" />
        <path
           d="m 14029,14620 c -186,-17 -338,-106 -437,-254 -71,-106 -96,-187 -96,-306 1,-119 26,-202 96,-305 75,-113 160,-179 297,-230 118,-44 176,-118 207,-264 32,-153 3,-365 -95,-683 -56,-182 -123,-335 -247,-563 -234,-432 -283,-560 -309,-801 -8,-74 8,-199 41,-311 22,-75 98,-251 217,-503 157,-332 384,-807 483,-1012 114,-238 120,-248 150,-254 74,-14 149,21 229,107 49,54 75,99 175,304 65,132 129,265 143,295 14,30 55,117 91,193 36,76 66,140 66,141 0,2 29,64 63,137 144,304 188,414 234,586 38,142 44,367 13,503 -37,164 -100,308 -275,625 -171,310 -245,511 -290,790 -22,137 -30,380 -16,485 19,140 61,201 152,221 83,19 186,78 257,148 219,217 222,546 9,769 -116,120 -236,171 -422,178 -220,8 -662,10 -736,4 z"
           id="path49"
           style="fill:#1423e3;fill-opacity:0.75" />
        <path
           d="m 17540,13684 c -186,-42 -348,-161 -478,-353 -75,-110 -81,-120 -327,-596 -114,-220 -231,-445 -260,-500 -29,-55 -89,-172 -135,-260 -124,-240 -207,-399 -265,-510 -53,-102 -136,-261 -265,-510 -40,-77 -87,-167 -105,-200 -18,-33 -66,-125 -107,-205 -82,-158 -283,-544 -383,-735 -35,-66 -174,-334 -310,-595 -136,-261 -259,-491 -274,-510 -15,-19 -43,-43 -62,-53 -104,-55 -319,56 -452,236 -30,39 -100,162 -157,272 -57,110 -161,313 -233,450 -71,138 -168,324 -214,415 -47,91 -114,219 -148,285 -34,66 -102,197 -150,290 -118,229 -240,465 -285,550 -20,39 -288,556 -596,1150 l -559,1080 -80,80 c -55,56 -102,92 -150,117 -308,159 -786,113 -1280,-122 -472,-224 -973,-571 -1387,-961 -996,-936 -1633,-2151 -1830,-3487 -15,-101 -22,-198 -22,-312 -1,-147 1,-170 20,-210 26,-56 71,-102 126,-129 72,-34 50,-32 1283,-126 497,-38 1238,-85 1665,-105 113,-5 239,-12 280,-15 154,-11 903,-41 1620,-65 1189,-40 3604,-40 4805,0 698,23 1470,54 1625,65 41,3 170,10 285,15 523,25 1256,73 1920,125 105,8 251,19 325,25 446,35 523,42 594,56 161,31 239,98 256,221 15,109 -28,472 -95,808 -192,960 -646,1880 -1319,2671 -244,287 -622,640 -941,878 -471,353 -1048,656 -1430,753 -127,32 -399,41 -505,17 z"
           id="path51"
           style="fill:#1423e3;fill-opacity:0.75" />
        <path
           d="m 5795,7999 c -826,-79 -1348,-648 -1544,-1684 -101,-535 -95,-1257 15,-1777 128,-605 391,-1045 783,-1309 233,-157 465,-241 806,-291 126,-19 193,-22 420,-22 264,1 432,12 725,49 614,79 1104,134 1450,165 989,87 1638,113 2745,111 810,-1 915,3 1070,39 311,73 556,273 646,526 24,66 35,207 22,269 l -9,39 -54,-2 c -30,-2 -145,-11 -255,-22 -326,-31 -516,-49 -765,-70 -129,-11 -280,-25 -335,-30 -191,-19 -773,-71 -1435,-130 -63,-5 -212,-19 -330,-30 -118,-11 -269,-25 -335,-30 -66,-6 -136,-12 -155,-15 -19,-3 -118,-12 -220,-20 -270,-22 -497,-42 -740,-65 -118,-11 -471,-43 -785,-70 -313,-27 -664,-59 -780,-70 -580,-56 -730,-51 -963,32 -348,123 -662,414 -846,786 -132,264 -192,529 -203,882 -19,637 143,1206 455,1597 262,328 580,468 928,408 219,-39 424,-175 585,-388 64,-85 165,-281 198,-386 61,-188 81,-462 47,-621 -69,-320 -236,-554 -459,-648 -53,-22 -77,-26 -162,-25 -140,0 -231,36 -337,131 -153,138 -268,440 -294,767 -3,50 -10,97 -14,105 -6,10 -39,19 -102,27 -51,7 -116,15 -144,19 l -51,6 -12,-73 c -6,-41 -34,-189 -61,-329 -75,-385 -84,-465 -84,-705 -1,-279 28,-427 124,-631 168,-360 462,-533 953,-560 129,-7 328,4 667,36 113,11 278,27 368,35 89,8 237,22 330,31 92,8 257,24 367,34 334,33 601,58 790,75 99,9 315,30 480,46 335,32 425,41 735,69 317,29 510,47 745,70 411,40 522,51 685,65 171,15 437,40 790,75 113,11 261,25 330,31 406,34 519,88 589,282 35,93 44,200 44,497 1,469 -40,795 -154,1255 -65,261 -214,682 -285,802 -91,156 -205,211 -464,228 -58,3 -159,10 -225,15 -66,6 -223,17 -350,25 -291,19 -576,39 -925,65 -428,31 -670,48 -1141,80 -239,16 -559,38 -710,50 -287,21 -504,36 -1004,70 -165,11 -325,22 -355,25 -30,3 -122,10 -205,15 -82,5 -274,19 -425,30 -677,50 -958,59 -1175,39 z"
           id="path53"
           style="fill:#1423e3;fill-opacity:0.75" />
        <path
           d="m 22615,7999 c -82,-4 -312,-19 -510,-33 -432,-31 -731,-51 -1040,-71 -126,-8 -257,-17 -290,-20 -33,-3 -163,-12 -290,-20 -126,-8 -324,-22 -440,-30 -505,-35 -654,-45 -880,-60 -226,-14 -378,-25 -880,-60 -518,-36 -650,-45 -795,-55 -266,-18 -748,-49 -920,-61 -91,-6 -165,-11 -166,-12 -1,-1 19,-69 43,-152 142,-490 224,-933 269,-1455 22,-253 25,-840 5,-1144 -13,-191 -13,-222 0,-245 20,-35 83,-76 149,-95 32,-10 268,-37 575,-66 286,-28 628,-61 760,-75 132,-13 339,-33 460,-45 387,-37 1192,-115 1440,-140 55,-6 197,-19 315,-30 310,-29 610,-59 720,-70 52,-6 169,-17 260,-25 91,-8 302,-28 470,-44 469,-46 913,-89 1155,-111 121,-12 353,-35 515,-52 205,-22 350,-31 475,-32 174,-1 182,0 235,25 123,59 188,162 244,394 123,500 171,1080 131,1585 -36,461 -98,775 -215,1097 -168,460 -466,822 -803,978 -251,116 -517,149 -992,124 z"
           id="path55"
           style="fill:#1423e3;fill-opacity:0.75" />
        <path
           d="m 13248,7593 c -127,-2 -198,-7 -198,-14 0,-5 7,-23 15,-39 36,-70 147,-359 198,-515 103,-319 172,-634 219,-1010 20,-160 22,-225 22,-595 1,-430 -10,-579 -60,-875 -55,-331 -173,-758 -286,-1038 -22,-55 -38,-100 -36,-102 2,-2 636,-5 1409,-6 1580,-2 1473,-7 1543,71 46,51 67,94 105,213 341,1068 361,2238 56,3293 -119,409 -176,519 -302,581 -50,24 -72,28 -202,34 -136,7 -2040,8 -2483,2 z"
           id="path57"
           style="fill:#1423e3;fill-opacity:0.75" />
        <path
           d="m 16878,4000 c -230,-29 -401,-162 -444,-346 -43,-188 73,-329 304,-369 54,-9 235,-15 597,-20 1557,-18 2830,-96 4290,-260 228,-25 554,-54 732,-65 627,-37 1129,40 1528,235 131,64 155,81 155,108 0,47 -73,91 -165,101 -177,19 -712,77 -790,86 -49,6 -157,17 -240,25 -82,8 -240,24 -350,35 -110,12 -263,27 -340,35 -77,8 -396,40 -710,70 -313,30 -642,62 -730,70 -168,16 -356,33 -720,65 -121,10 -301,26 -400,35 -456,41 -701,61 -1695,140 -173,14 -396,32 -495,40 -244,19 -446,25 -527,15 z"
           id="path59"
           style="fill:#1423e3;fill-opacity:0.75" />
        <path
           d="m 13535,3100 c -245,-17 -544,-56 -528,-70 4,-3 37,-19 73,-35 81,-35 245,-133 325,-194 33,-25 109,-93 169,-151 216,-210 354,-434 456,-740 27,-84 50,-157 50,-163 0,-25 81,-174 109,-201 17,-16 32,-28 34,-25 2,2 34,60 72,129 218,402 396,722 418,755 36,53 101,116 142,137 79,41 157,24 355,-80 41,-21 264,-135 495,-252 231,-117 475,-241 542,-276 68,-35 126,-64 129,-64 4,0 4,57 1,128 -7,136 -31,247 -87,407 -40,113 -168,390 -212,458 -96,151 -190,206 -386,226 -126,13 -1986,22 -2157,11 z"
           id="path61"
           style="fill:#1423e3;fill-opacity:0.75" />
      </g>
      <g
         id="path2594"
         inkscape:transform-center-x="-0.2174266"
         inkscape:transform-center-y="0.10602545"
         style="fill:#1423e3;fill-opacity:0.75"
         transform="matrix(0.90455768,0,0,0.87382057,-0.13896476,-0.9677569)">
        <path
           style="color:#000000;fill:#1423e3;fill-opacity:0.75;stroke-width:0.033;stroke-linejoin:round;-inkscape-stroke:none"
           d="M 18.594638,9.8640261 A 9.1319323,8.6461239 0 0 1 9.4627056,18.51015 9.1319323,8.6461239 0 0 1 0.33077335,9.8640261 9.1319323,8.6461239 0 0 1 9.4627056,1.2179022 9.1319323,8.6461239 0 0 1 18.594638,9.8640261 Z"
           id="path4366" />
        <path
           style="color:#000000;fill:#1423e3;fill-opacity:0.75;stroke-linejoin:round;-inkscape-stroke:none"
           d="m 9.4628906,1.2011719 c -5.0518647,0 -9.14843747,3.8775735 -9.14843747,8.6621094 0,4.7845357 4.09657277,8.6640627 9.14843747,8.6640627 5.0518644,0 9.1484374,-3.879527 9.1484374,-8.6640627 0,-4.7845359 -4.096573,-8.6621094 -9.1484374,-8.6621094 z m 0,0.033203 c 5.0349794,0 9.1152344,3.863207 9.1152344,8.6289063 0,4.7656998 -4.080255,8.6308598 -9.1152344,8.6308598 -5.034979,0 -9.11523435,-3.86516 -9.11523435,-8.6308598 0,-4.7656993 4.08025535,-8.6289063 9.11523435,-8.6289063 z"
           id="path4368" />
      </g>
    </g>
  </g>
</svg>
